<svg version="1" xmlns="http://www.w3.org/2000/svg" width="185.333" height="185.333" viewBox="0 0 139.000000 139.000000"><path d="M21.6 11.6L10 23.2l.2 46 .3 46.1h14.3l14.2-.1-.2 11.6c-.1 7.6.2 11.7.9 11.9.6.2 6.4-5 13-11.5l11.8-11.9h8c8.2 0 14.5-.9 14.5-2.1 0-1 4.2-5.3 7.4-7.6 1.4-1 2.6-2.4 2.6-3 0-.6.9-1.8 2.1-2.6 2.9-2.1 6.9-5.8 6.9-6.4 0-1.1 3.5-4.6 4.5-4.6.6 0 1.7-1 2.5-2.2.8-1.2 2.6-3.1 3.9-4.3 1.2-1.1 3-2.9 4-3.9.9-1.1 2.8-3.2 4.4-4.7l2.7-2.7V0H33.2L21.6 11.6zM118 37.2v27.3l-9.7 9.7-9.8 9.8h-20l-8.2 8.2-8.3 8.3V84H40V10h78v27.2z"/><path d="M66.5 28.2c-.3.8-.4 7.5-.3 14.9l.3 13.4 5.3.3 5.3.3-.3-14.8-.3-14.8-4.8-.3c-3.3-.2-4.9.1-5.2 1zM94 42v15h10V27H94v15z"/></svg>